<?xml version="1.0" encoding="UTF-8"?>
<svg version="1.1" xmlns="http://www.w3.org/2000/svg" viewBox="0 0 80 50">
	<rect width="80" height="50" fill="indigo"/>
	<g fill="white">
		<rect y="5" width="80" height="5"/><rect y="15" width="80" height="5"/>
		<rect y="25" width="80" height="5"/><rect y="35" width="80" height="5"/>
		<rect y="45" width="80" height="5"/><rect width="30" height="20"/>
		<ellipse cx="55" cy="27.5" rx="20" ry="12.5" stroke="indigo"/>
	</g>
	<g fill="indigo">
		<polygon transform="translate(6,1)" points="0,7 15,18 9,0 3,18 18,7"/>
		<path transform="matrix(.05 0 0 .05 41 19)" fill-rule="evenodd" d="m24.5 17 2-8h5l6 6 5 6 2 1 2 2 5 3 6-1 3-6-1-4 4-7v-1l1-2 9-2 3 2 1-1 7 1h1l2 4h5l5 5 4 1 1 1 9 1 2 2h1l7-7-4-6 9-1 3 7h2l2 7v2l3 5 5 3 1 1 3 4h1l4 5 4 1 3-2 7 2 8-2 3 1 6-3 9 6h1l11-1 4 4h10l4-6 5 2-1 4 4 5h2l3 6v1l8 6h1l8 7 5 6v1l-6 7 1 2 12 6 1 4-6 6-6 5-1 1v10l5 3v4l5 3 1 5 4 2 1 6-2 3-8 1-2-1-5 1h-9l-6 3v1l-3 6 1 10-4 1-3 5h-4l-3 7h-7l-1 2-1 3-2 2-1 2-6 5-7-2-1 1-3-1-5-8 9-2v-6l3-5v-6l-4-5-7-2h-1l-7-2-3-2v-2l-5-3-1-3-5-1-3-6 1-3-6-7-3 1-4 2-5-1-6 3h-2l-4-4h-8l-6-3-6 3h-3l-6 4-6-1-3 1-4-1-2-2h-6l-3-5h-7l-3 8 1 2-4 8-9 2h-3l-3 3-5 2-3 5 1 3 5 7h1l2 2h7l3 4 5 2 4 5 5 2 1 1 7 5v1l-2 6 1 2-2 7 1 5 2 1 8-1 4-5v-1l5-8 5 1 2 2v4l-5 4 2 7 1 1 3 4 3 1 5 7 1 1 2 3v4l3 3 1 10-1 1-2 8 1 2 1 4 5 5v8l2 1 1 10 3 1 1 4 4 3v3l6 6 2-1 4 10-2 2-5 1-2 2-6 3-2 4 2 5v3l-5 6-7-1-1-1-8-2-2 1h-3l-4 2-14-2h-5l-3-3-7-2-1-2-5-1-5-7v-1l-5-7v-1l-2-3-6-3-2-4h-2l-4-6 1-6 4-4h3l1 1 10 3 5-11h4l7-5v-1l-3-5-5-2h-1l-7-4-6-2-2-8h1l1-8v-2l-1-1-2-10-1-1-1-5 2-5-2-3 2-7-11-2h-6l-4-11-5-1-7 9h-2l-9-10h-3l1-11-1-1-3-9 1-3-2-5 6-13 10 4v-20l-2-2-2-13 4-3-2-6 4-8-1-3 2-5-7-9 3-4 2-13h5l6-14-3-5 1-3-13-9v-7l2-4-1-2 7-7m503 16-3 4-3 1-5 7v2l7 5 4-1 4-6 7 3-1 4-4 2 1 4-5 5 1 3 6 4v1l4 7 6 1 1 1 5 1 2 6-4 5 5 6-2 1v6l-4 4 3 4h4l4-5h1l1-10-2-2 1-4 4-5-1-3 5-8 6 5v1l7 5v1l6 4 1 6-3 3-4 2-2 2-7 1-2 3 1 9 8 2 4-2 6 7 1 1 6 7 2 1 7 8v4l-1 1v6l-2 3v3l1 1v8l1 1-1 11h-11l-3 10 4 3 1 2 5 4 1 6-9 5h-2l-6-1-1-1-6-2-2 1-3-1-6 3-2 8 1 1-2 7 1 3-1 2-7 5-7-6v-2l-5-6-5 2-5-1-2 1h-6l-2 2 2 7v5l-5 4-1 6-5 2-1 6 5 4 7 1 1 5-5 4-4-1-3 1h-1l-6-5-5 1-4-8h-3l-5 2-2 6-2 4-4 3h-10l-4-1h-2l-2-1-5 1h-2l-7 1-1 1h-4l-7-3-4-1-7 3-1 2-6 2h-3l-3-3h-4l-6-3-2 1-4 7-1 3-5 7v1l-2 3-5 4h-2l-3 8v2l-3 5v4l-7 7h-5l-2 1-9-2h-9l-2-1-7 1-4-2-3 1-5-2h-2l-4-4h-1l-7 3v1l-5 5h-1l-5 5h-1l-4 6-5 1-1-2-9 5-5-6h-2l-3 1v8l6 5-4 5-7-2-2 1h-3l-4 4 2 6-4 4v3l-1 3-7-1-3-5h-6l-3-3h-2l-4 1-5-2-4 1h-7l-3-2v-5l7-6 7 2v1l10-2 1-1 1-5-1-2-1-4-3-3 1-9-5-2-1-1v-2l-6-6 3-7 2-1 1-4-2-3h-10l-1-2-7-1h-1l-7-3-5 2v1l-5 3-1-1-5 1-3-1-3 1-6-2-5 2-5-6h-3l-3-4-6-3-2-8v-1l-1-3v-4l-4-7v-3l-4-6 1-4-6-7 1-2-3-7 3-5-2-2v-6l-1-1 2-7-6-1-1-4-5-3 1-7 10 1 3 4 4 2h2l3-3 3-6-7-5-1-1-6-3 1-5 3-4h2l5-5h4l7-4 2-4 4-1 2-2h2l10 5 3 2-1 6-2 7 4 4-2 6 3 5v3l1 1 8 4 5-2 3 1 1 10 2 1v8l-1 2 4 7 4-1 4-8 2-1 5-1 2-1h7v1l4-1 5-1v-1l2-2 3-5 8-4v-1l2-2 3-4 5-2 1-7-1-1 1-12h9l2 4 10-1 2 2 8-1 1 1 10-2 1-1 8-1 3-1 1-4h9l3 4 7 1 1-1v-5l-8-7v-3l-4-3 1-4 2-3-1-5 1-2 7-2 1-4h6l3-5h5l1 1h5l6 4 3 3 2 8-3 4 1 2 3 4 7-2 3-4 7 1 4 6 5 2 3 3 1 4 3 2 2 3 2 2 7 1 2 4 9 1 1-1 8 2 4-2 1 1 8-2 1-4-3-7-5-2-1-3-5-6 2-4 6-3 1-4v-4l-7-1-3-7 1-1-7-6 7-6-5-5h-7l-6 1-2-1-5 1-5-5v-6l2-2 2-1 7 2 5-3 1-6v-9l1-7-2-2-1-6 3-5-1-4v-1l-2-9-2-1-3-8 1-2 1-1 3-6v-1l2-2 6-3 3-1 4 3 1 2 7 4 4 4h3l5 6 6-8 1 1 3-2 6 2 4-2 6 3 7 2 3-1 3 2 8-2 1 1h5l5-6 3-1 2-8 2-1 2-5 2-2 12-5 3 1 9 1 2 4v4l-2 2-7 3-4-2-3 2m-455 127 8-7 2 9h5l3 5h4v9l-3 2h-2l-5-6h-3l-4-6-2-1-3-5m229 3 2-5 8 1 2 1-8 7h-1l-3-4m159 33 4 2 5 1 3-2h7l3-1h2l3-1 4 2 7-1 2-1 6-1 2 1 2-1 9 1 4 6 3 2 1 1v7l-2 7-10 2-2-1-5 1v1l-6 6-1 2-3 5-4 1-2-1-5-11-8-2h-1l-5 1-3-2h-7l-3-2-5 1-6-5v-3l-2-4 3-3 2-6 8-2m-217 39 5-1 2 1 5-1 4 1 3 6-9 5v3h-5l-4 6-8-1-1-1v-2l-4-8 1-4 3-2 7-1 1-1m5 155v4l3 2 6-1 2-8v-1l-4-3-7 7"/>
	</g>
</svg>
