<?xml version="1.0" encoding="UTF-8"?>
<svg version="1.1" xmlns="http://www.w3.org/2000/svg" viewBox="0 0 26 26">
	<g fill="gold">
		<path d="m21.2 2.56c0.688 1.2 0.125 1.66-0.436 1.98-0.561 0.314-1.24 0.425-1.92-0.774-0.691-1.2-0.717-3.76-0.717-3.76s2.38 1.35 3.07 2.56z"/>
		<path d="m24.2 6c-0.595 1.25-1.29 1.05-1.87 0.775-0.581-0.283-1.06-0.773-0.467-2.02 0.595-1.25 2.67-2.74 2.67-2.74s0.254 2.73-0.337 3.98z"/>
		<path d="m24.6 10.7c-0.897 1.06-1.52 0.685-2.01 0.267-0.487-0.421-0.82-1.02 0.07-2.07 0.895-1.06 3.29-1.95 3.29-1.95s-0.461 2.7-1.36 3.76z"/>
		<path d="m20.6 9.34c1.23 0.716 0.978 1.4 0.65 1.95-0.329 0.554-0.863 0.984-2.09 0.271-1.23-0.715-2.59-2.95-2.59-2.95s2.8 0.012 4.03 0.726z"/>
		<path d="m22.9 15.6c-1.2 0.688-1.66 0.128-1.98-0.431-0.315-0.561-0.426-1.24 0.771-1.92 1.2-0.691 3.76-0.721 3.76-0.721s-1.35 2.39-2.55 3.08z"/>
		<path d="m19.8 13.1c0.88 1.12 0.393 1.66-0.114 2.05-0.509 0.396-1.17 0.596-2.04-0.521-0.878-1.12-1.31-3.7-1.31-3.7s2.59 1.05 3.47 2.16z"/>
		<path d="m20.4 19.7c-1.37 0.24-1.61-0.443-1.72-1.08-0.108-0.636 0.015-1.31 1.37-1.55 1.37-0.243 3.78 0.597 3.78 0.597s-2.08 1.78-3.44 2.03z"/>
		<path d="m18.2 16.3c0.601 1.29 0 1.7-0.584 1.97-0.587 0.266-1.27 0.311-1.87-0.975-0.601-1.29-0.432-3.9-0.432-3.9s2.29 1.61 2.88 2.9z"/>
		<path d="m15.5 18.8c0.245 1.4-0.438 1.64-1.07 1.75-0.636 0.103-1.31-0.028-1.56-1.42-0.245-1.4 0.587-3.88 0.587-3.88s1.79 2.15 2.04 3.55z"/>
		<path d="m16.8 22.8c-1.41-0.209-1.42-0.937-1.33-1.57 0.104-0.638 0.44-1.23 1.84-1.02 1.41 0.211 3.5 1.78 3.5 1.78s-2.61 1.02-4.01 0.811z"/>
		<path d="m12.4 21c0.102 1.42-0.603 1.59-1.24 1.64-0.643 0.037-1.3-0.164-1.4-1.58-0.098-1.42 0.983-3.8 0.983-3.8s1.56 2.32 1.66 3.74z"/>
		<path d="m12.8 25.2c-1.34-0.477-1.22-1.19-1-1.8 0.221-0.606 0.668-1.13 2-0.654 1.34 0.477 3.09 2.42 3.09 2.42s-2.75 0.504-4.09 0.031z"/>
		<path d="m20.2 5.46c1.37 0.37 1.3 1.1 1.13 1.71-0.174 0.621-0.579 1.18-1.94 0.806-1.37-0.37-3.24-2.17-3.24-2.17s2.69-0.717 4.06-0.348z"/>
		<path d="m10.6 23.4s-6.45 2.54-10.5 1.63c-0.316 0.376 0.446 0.926 0.446 0.926s5.86 0.091 10-2.56z"/>
	</g>
</svg>
